version = 1
nColumns = 19
nRows = 10
inDegrees = yes
endheader 
time	r_ground_force_vx	r_ground_force_vy	r_ground_force_vz	r_ground_force_px	r_ground_force_py	r_ground_force_pz	l_ground_force_vx	l_ground_force_vy	l_ground_force_vz	l_ground_force_px	l_ground_force_py	l_ground_force_pz	r_ground_torque_x	r_ground_torque_y	r_ground_torque_z	l_ground_torque_x	l_ground_torque_y	l_ground_torque_z	
          0.28364959	          0.00000000	          0.00000000	          0.00000000	          0.00000000	          0.00000000	          0.00000000	       -458.17201188	        403.13853942	        -82.95600581	          1.15197240	          0.00000000	         -0.03408587	          0.00000000	          0.00000000	          0.00000000	          0.00000000	          1.56938169	          0.00000000	
          0.28452919	          0.00000000	          0.00000000	          0.00000000	          0.00000000	          0.00000000	          0.00000000	       -470.39303676	        447.41038406	         82.24265692	          0.20349394	          0.00000000	          0.03455802	          0.00000000	          0.00000000	          0.00000000	          0.00000000	         -2.12713261	          0.00000000	
          0.28730838	          0.00000000	          0.00000000	          0.00000000	          0.00000000	          0.00000000	          0.00000000	       -331.38502030	        562.63657060	         50.81757289	          0.18734186	          0.00000000	          0.03677956	          0.00000000	          0.00000000	          0.00000000	          0.00000000	         -5.59210137	          0.00000000	
          0.28932258	          0.00000000	          0.00000000	          0.00000000	          0.00000000	          0.00000000	          0.00000000	       -133.44234310	        625.14199245	         27.35041544	          0.17182222	          0.00000000	          0.03895214	          0.00000000	          0.00000000	          0.00000000	          0.00000000	         -6.04290331	          0.00000000	
          0.29020218	          0.00000000	          0.00000000	          0.00000000	          0.00000000	          0.00000000	          0.00000000	       -137.11650487	        670.46444686	         24.42366629	          0.16661171	          0.00000000	          0.03973896	          0.00000000	          0.00000000	          0.00000000	          0.00000000	         -6.62354368	          0.00000000	
          0.29298137	          0.00000000	          0.00000000	          0.00000000	          0.00000000	          0.00000000	          0.00000000	       -134.39972763	        859.05586576	         11.80578247	          0.15798562	          0.00000000	          0.04136208	          0.00000000	          0.00000000	          0.00000000	          0.00000000	         -6.74123764	          0.00000000	
          0.29499557	          0.00000000	          0.00000000	          0.00000000	          0.00000000	          0.00000000	          0.00000000	       -139.73212801	        998.30441875	          9.26386138	          0.15380938	          0.00000000	          0.04225753	          0.00000000	          0.00000000	          0.00000000	          0.00000000	         -5.59752646	          0.00000000	
          0.29587517	          0.00000000	          0.00000000	          0.00000000	          0.00000000	          0.00000000	          0.00000000	       -141.65455699	       1050.62793025	          9.15608859	          0.15175881	          0.00000000	          0.04264887	          0.00000000	          0.00000000	          0.00000000	          0.00000000	         -5.06682233	          0.00000000	
          0.29865436	          0.00000000	          0.00000000	          0.00000000	          0.00000000	          0.00000000	          0.00000000	       -132.42381511	       1194.43833024	          6.00609646	          0.14670110	          0.00000000	          0.04360205	          0.00000000	          0.00000000	          0.00000000	          0.00000000	         -4.02715110	          0.00000000	
          0.30066856	          0.00000000	          0.00000000	          0.00000000	          0.00000000	          0.00000000	          0.00000000	       -122.18085369	       1276.62837772	          3.40901429	          0.14430712	          0.00000000	          0.04406326	          0.00000000	          0.00000000	          0.00000000	          0.00000000	         -3.73101476	          0.00000000	
